<svg width="107" height="52" viewBox="0 0 107 52" fill="none" xmlns="http://www.w3.org/2000/svg">
<g style="mix-blend-mode:difference" opacity="0.5">
<g clip-path="url(#clip0_532_424)">
<path d="M2.11563 0.333008C2.04913 0.33475 1.98594 0.362268 1.93953 0.409697C1.89312 0.457126 1.86716 0.520716 1.86719 0.586914V36.1605C1.86716 36.2267 1.89312 36.2903 1.93953 36.3377C1.98594 36.3851 2.04913 36.4127 2.11563 36.4144H15.4644C20.2726 36.4144 24.884 34.5137 28.2839 31.1304C31.6839 27.7471 33.5939 23.1584 33.5939 18.3737C33.5939 13.589 31.6839 9.00029 28.2839 5.61701C24.884 2.23372 20.2726 0.333008 15.4644 0.333008L2.11563 0.333008ZM10.1732 28.3963C10.1067 28.3946 10.0435 28.3671 9.99712 28.3196C9.95071 28.2722 9.92475 28.2086 9.92477 28.1424V8.605C9.92475 8.5388 9.95071 8.47521 9.99712 8.42778C10.0435 8.38035 10.1067 8.35284 10.1732 8.3511H15.4644C18.1356 8.3511 20.6975 9.40705 22.5863 11.2866C24.4752 13.1663 25.5363 15.7155 25.5363 18.3737C25.5363 21.0319 24.4752 23.5812 22.5863 25.4608C20.6975 27.3404 18.1356 28.3963 15.4644 28.3963H10.1732Z" fill="#F5F5F5"/>
</g>
<g clip-path="url(#clip1_532_424)">
<path d="M52.4668 17.7523L41.7732 0.546824C41.7302 0.48389 41.6737 0.431883 41.6079 0.394812C41.5421 0.35774 41.4689 0.336596 41.3939 0.333008L33.8397 0.333008C33.7749 0.33475 33.7133 0.362268 33.6681 0.409697C33.6229 0.457126 33.5976 0.520716 33.5977 0.586914V36.1605C33.5976 36.2267 33.6229 36.2903 33.6681 36.3377C33.7133 36.3851 33.7749 36.4127 33.8397 36.4144H41.1977C41.2303 36.4144 41.2626 36.4078 41.2928 36.3951C41.3229 36.3823 41.3503 36.3636 41.3734 36.34C41.3965 36.3165 41.4148 36.2885 41.4273 36.2577C41.4398 36.2269 41.4462 36.1938 41.4462 36.1605V15.2266C41.4462 15.0863 41.5051 15.0729 41.577 15.1865L52.408 32.6058C52.4206 32.6311 52.4398 32.6523 52.4634 32.6671C52.4871 32.682 52.5143 32.6898 52.5421 32.6898C52.5698 32.6898 52.597 32.682 52.6207 32.6671C52.6444 32.6523 52.6636 32.6311 52.6761 32.6058L63.5594 15.4137C63.6379 15.3001 63.6968 15.3202 63.6968 15.4538V36.1672C63.6959 36.2002 63.7015 36.2331 63.7133 36.2638C63.7251 36.2946 63.7428 36.3227 63.7653 36.3463C63.7879 36.37 63.8149 36.3888 63.8446 36.4016C63.8744 36.4145 63.9065 36.4211 63.9388 36.4211H71.2968C71.3294 36.4211 71.3618 36.4145 71.3919 36.4018C71.4221 36.389 71.4495 36.3703 71.4725 36.3467C71.4956 36.3231 71.5139 36.2952 71.5264 36.2643C71.5389 36.2335 71.5453 36.2005 71.5453 36.1672V0.586914C71.5453 0.519574 71.5191 0.454992 71.4725 0.407375C71.4259 0.359759 71.3627 0.333008 71.2968 0.333008H64.0107C63.9367 0.3381 63.8647 0.359201 63.7993 0.394911C63.7339 0.430621 63.6766 0.480125 63.6314 0.540142L52.735 17.7523C52.7224 17.7776 52.7032 17.7988 52.6796 17.8136C52.6559 17.8285 52.6287 17.8363 52.6009 17.8363C52.5732 17.8363 52.5459 17.8285 52.5223 17.8136C52.4986 17.7988 52.4794 17.7776 52.4668 17.7523Z" fill="#F5F5F5"/>
</g>
<g clip-path="url(#clip2_532_424)">
<path d="M89.7789 24.5449H97.1021C97.1663 24.5449 97.2281 24.5709 97.2741 24.6174C97.3201 24.6638 97.3469 24.7271 97.3485 24.7937V25.5739C97.342 25.7361 97.2852 25.8918 97.1864 26.0177C97.0502 26.1792 96.9075 26.3338 96.7648 26.4818C95.8344 27.4483 94.7333 28.22 93.5216 28.755C92.8941 29.0268 92.2423 29.2341 91.5757 29.3737C90.214 29.6561 88.8119 29.6561 87.4503 29.3737C86.7947 29.2319 86.1539 29.0247 85.5368 28.755C84.3251 28.22 83.224 27.4483 82.2936 26.4818C81.8314 26.0017 81.4144 25.477 81.0482 24.9148C80.3027 23.7711 79.7805 22.487 79.511 21.1352C79.2285 19.752 79.219 18.3239 79.4832 16.9369C79.7474 15.5499 80.2798 14.2327 81.0482 13.0648C81.4126 12.4991 81.8298 11.972 82.2936 11.491C82.7775 11.0135 83.303 10.5835 83.8633 10.2065C84.4095 9.82522 84.9894 9.49869 85.5952 9.23133C86.2114 8.96074 86.8525 8.75569 87.5087 8.61932C88.8697 8.33014 90.2731 8.33014 91.634 8.61932C92.3012 8.75347 92.9533 8.95856 93.58 9.23133C94.1858 9.49869 94.7657 9.82522 95.3118 10.2065C96.338 10.9301 97.2282 11.8417 97.9388 12.8966C97.9755 12.9511 98.0313 12.9886 98.0943 13.0012C98.1573 13.0138 98.2225 13.0004 98.2761 12.9639L104.328 8.72693C104.38 8.68884 104.417 8.63101 104.429 8.56571C104.441 8.50041 104.428 8.4328 104.393 8.37721C103.777 7.46558 103.087 6.61055 102.33 5.82158C99.8466 3.2441 96.6899 1.47665 93.2491 0.737234C90.89 0.220136 88.4546 0.200149 86.0878 0.678462C83.7211 1.15677 81.4712 2.12362 79.472 3.52152C77.5562 4.86225 75.9068 6.57238 74.6137 8.55879C73.277 10.6196 72.3489 12.9355 71.8834 15.3717C71.418 17.8078 71.4244 20.3157 71.9024 22.7492C72.1412 23.9523 72.4931 25.1281 72.9532 26.2599C73.4099 27.3694 73.9659 28.4322 74.6137 29.4342C75.2612 30.4232 75.9974 31.3464 76.8126 32.1916C77.6268 33.0359 78.5174 33.7972 79.472 34.4648C80.4442 35.1463 81.4809 35.7232 82.5661 36.1865C83.6543 36.6665 84.7865 37.0315 85.9455 37.276C88.3376 37.787 90.8051 37.787 93.1973 37.276C94.3562 37.0315 95.4884 36.6665 96.5767 36.1865C97.6506 35.7211 98.6764 35.1443 99.6382 34.4648C100.593 33.7972 101.483 33.0359 102.298 32.1916C103.113 31.3464 103.849 30.4232 104.497 29.4342L105.028 28.6205C105.109 28.4791 105.155 28.3201 105.165 28.1564V16.7233C105.163 16.6567 105.136 16.5934 105.09 16.547C105.044 16.5005 104.982 16.4745 104.918 16.4745H89.7789C89.7158 16.4762 89.6557 16.503 89.611 16.5493C89.5664 16.5956 89.5406 16.6579 89.5389 16.7233V24.2893C89.5389 24.356 89.564 24.42 89.6088 24.4677C89.6536 24.5155 89.7147 24.5431 89.7789 24.5449Z" fill="#F5F5F5"/>
</g>
<path d="M1.86719 40.468V51.5964H3.13834V40.468H1.86719ZM5.88402 40.468V51.5964H7.0789V45.7706C7.0789 45.1908 7.06619 44.5969 7.02806 44.0172C6.98992 43.4374 6.95179 42.8577 6.91365 42.2921H6.97721L8.05769 44.5828L11.6932 51.5964H13.0025V40.468H11.7949V46.2231C11.7949 46.8028 11.8203 47.3967 11.8457 48.0047C11.8838 48.6128 11.922 49.1925 11.9474 49.7581H11.8838L10.8034 47.4533L7.19331 40.468H5.88402ZM17.8201 41.6557V51.5964H19.104V41.6557H22.1293V40.468H14.8075V41.6557H17.8201ZM23.9216 40.468V51.5964H29.8452V50.3944H25.1928V46.3503H28.9935V45.1484H25.1928V41.6557H29.6927V40.468H23.9216ZM33.2265 45.7423V41.5992H34.9044C35.6925 41.5992 36.2899 41.7547 36.7094 42.0375C37.1289 42.3345 37.3323 42.8577 37.3323 43.593C37.3323 44.3141 37.1289 44.8514 36.7094 45.205C36.2899 45.5585 35.6925 45.7423 34.9044 45.7423H33.2265ZM37.4594 51.5964H38.8831L36.3535 46.7462C37.0399 46.5483 37.5865 46.1948 37.9933 45.6716C38.4 45.1484 38.6034 44.4555 38.6034 43.593C38.6034 43.0132 38.5144 42.5183 38.3365 42.1224C38.1712 41.7264 37.9297 41.4154 37.6119 41.1608C37.3068 40.9063 36.9382 40.7366 36.506 40.6235C36.0738 40.5245 35.6035 40.468 35.095 40.468H31.968V51.5964H33.2265V46.9018H35.0442L37.4594 51.5964ZM40.8279 40.468V51.5964H42.0355V45.7706C42.0355 45.1908 42.0101 44.5969 41.972 44.0172C41.9465 43.4374 41.9084 42.8577 41.8576 42.2921H41.9211L43.0016 44.5828L46.6371 51.5964H47.9464V40.468H46.7388V46.2231C46.7388 46.8028 46.7642 47.3967 46.8023 48.0047C46.8278 48.6128 46.8659 49.1925 46.8913 49.7581H46.8405L45.7473 47.4533L42.1372 40.468H40.8279ZM54.9504 47.0715H51.9505L52.4208 45.3746C52.5988 44.7525 52.7767 44.1303 52.942 43.5081C53.0945 42.9001 53.2598 42.2638 53.4123 41.6133H53.4759C53.6284 42.2638 53.7937 42.9001 53.9589 43.5081C54.1242 44.1303 54.2894 44.7525 54.4801 45.3746L54.9504 47.0715ZM55.2682 48.2027L56.2216 51.5964H57.569L54.1877 40.468H52.7513L49.3701 51.5964H50.6666L51.62 48.2027H55.2682ZM60.4545 41.6557V51.5964H61.7383V41.6557H64.7637V40.468H57.4419V41.6557H60.4545ZM66.556 40.468V51.5964H67.8272V40.468H66.556ZM74.2592 51.7943C74.8947 51.7943 75.4668 51.6671 75.9879 51.3984C76.5218 51.1156 76.9667 50.7338 77.3481 50.2248C77.7294 49.7298 78.0218 49.1218 78.2379 48.4007C78.4413 47.6795 78.5429 46.8735 78.5429 45.9827C78.5429 45.0918 78.4413 44.3 78.2379 43.593C78.0218 42.886 77.7294 42.2921 77.3481 41.7971C76.9667 41.3022 76.5218 40.9205 75.9879 40.6659C75.4668 40.3973 74.8947 40.2559 74.2592 40.2559C73.6363 40.2559 73.0516 40.3973 72.5304 40.6518C72.0092 40.9063 71.5516 41.2881 71.183 41.783C70.8016 42.2779 70.5093 42.8718 70.3059 43.5788C70.0898 44.2858 69.9881 45.0918 69.9881 45.9827C69.9881 46.8735 70.0898 47.6795 70.3059 48.4007C70.5093 49.1218 70.8016 49.7298 71.183 50.2248C71.5516 50.7338 72.0092 51.1156 72.5304 51.3984C73.0516 51.6671 73.6363 51.7943 74.2592 51.7943ZM74.2592 50.5641C73.8143 50.5641 73.4075 50.451 73.0516 50.2389C72.6829 50.0268 72.3779 49.7157 72.1236 49.3198C71.8567 48.9097 71.6533 48.4289 71.5135 47.8775C71.3737 47.3119 71.2974 46.6755 71.2974 45.9827C71.2974 45.2898 71.3737 44.6676 71.5135 44.1162C71.6533 43.5647 71.8567 43.0839 72.1236 42.7021C72.3779 42.3203 72.6829 42.0234 73.0516 41.8113C73.4075 41.5992 73.8143 41.5002 74.2592 41.5002C74.7041 41.5002 75.1108 41.5992 75.4795 41.8113C75.8354 42.0234 76.1405 42.3203 76.4074 42.7021C76.6616 43.0839 76.865 43.5647 77.0049 44.1162C77.1447 44.6676 77.2209 45.2898 77.2209 45.9827C77.2209 46.6755 77.1447 47.3119 77.0049 47.8775C76.865 48.4289 76.6616 48.9097 76.4074 49.3198C76.1405 49.7157 75.8354 50.0268 75.4795 50.2389C75.1108 50.451 74.7041 50.5641 74.2592 50.5641ZM80.7039 40.468V51.5964H81.8988V45.7706C81.8988 45.1908 81.8861 44.5969 81.8479 44.0172C81.8098 43.4374 81.7717 42.8577 81.7335 42.2921H81.7971L82.8776 44.5828L86.5131 51.5964H87.8223V40.468H86.6147V46.2231C86.6147 46.8028 86.6402 47.3967 86.6656 48.0047C86.7037 48.6128 86.7419 49.1925 86.7673 49.7581H86.7037L85.6233 47.4533L82.0132 40.468H80.7039ZM94.8264 47.0715H91.8137L92.2968 45.3746C92.4747 44.7525 92.6527 44.1303 92.8053 43.5081C92.9705 42.9001 93.1357 42.2638 93.2883 41.6133H93.3391C93.5044 42.2638 93.6696 42.9001 93.8349 43.5081C94.0001 44.1303 94.1654 44.7525 94.356 45.3746L94.8264 47.0715ZM95.1442 48.2027L96.0848 51.5964H97.4449L94.0637 40.468H92.6273L89.246 51.5964H90.5426L91.496 48.2027H95.1442ZM98.8686 40.468V51.5964H104.513V50.3944H100.127V40.468H98.8686Z" fill="#F5F5F5"/>
</g>
<defs>
<clipPath id="clip0_532_424">
<rect width="31.7267" height="36.0814" fill="white" transform="translate(1.86719 0.333008)"/>
</clipPath>
<clipPath id="clip1_532_424">
<rect width="37.9477" height="36.0814" fill="white" transform="translate(33.5977 0.333008)"/>
</clipPath>
<clipPath id="clip2_532_424">
<rect width="33.593" height="37.3256" fill="white" transform="translate(71.5391 0.333008)"/>
</clipPath>
</defs>
</svg>
