<svg width="32" height="32" viewBox="0 0 32 32" fill="none" xmlns="http://www.w3.org/2000/svg">
<g clip-path="url(#clip0_2560_374)">
<g clip-path="url(#clip1_2560_374)">
<path d="M-1.06963 0.276367C-1.097 0.277092 -1.123 0.288544 -1.1421 0.308282C-1.1612 0.32802 -1.17188 0.354484 -1.17187 0.382033V15.1863C-1.17188 15.2139 -1.1612 15.2403 -1.1421 15.2601C-1.123 15.2798 -1.097 15.2912 -1.06963 15.292H4.424C6.40283 15.292 8.30061 14.501 9.69985 13.093C11.0991 11.685 11.8852 9.77536 11.8852 7.78417C11.8852 5.79298 11.0991 3.88334 9.69985 2.47535C8.30061 1.06737 6.40283 0.276367 4.424 0.276367H-1.06963ZM2.24645 11.9552C2.21908 11.9544 2.19307 11.943 2.17397 11.9233C2.15487 11.9035 2.14419 11.8771 2.1442 11.8495V3.71883C2.14419 3.69128 2.15487 3.66482 2.17397 3.64508C2.19307 3.62534 2.21908 3.61389 2.24645 3.61317H4.424C5.52335 3.61317 6.57767 4.05261 7.35503 4.83483C8.13238 5.61704 8.5691 6.67795 8.5691 7.78417C8.5691 8.89039 8.13238 9.9513 7.35503 10.7335C6.57767 11.5157 5.52335 11.9552 4.424 11.9552H2.24645Z" fill="#F5F5F5"/>
</g>
<g clip-path="url(#clip2_2560_374)" filter="url(#filter0_b_2560_374)">
<path fill-rule="evenodd" clip-rule="evenodd" d="M11.8072 9.08889L15.9594 16.2417C15.9643 16.2522 15.9717 16.261 15.9809 16.2672C15.9901 16.2733 16.0006 16.2766 16.0114 16.2766C16.0222 16.2766 16.0328 16.2733 16.042 16.2672C16.0512 16.261 16.0586 16.2522 16.0635 16.2417L20.2944 9.08611C20.3119 9.06116 20.3341 9.04058 20.3595 9.02573C20.3849 9.01089 20.4129 9.00212 20.4416 9H23.2707C23.2963 9 23.3208 9.01112 23.3389 9.03092C23.357 9.05071 23.3672 9.07756 23.3672 9.10556V18.5115L22.0011 19.7483C22.0011 20.2902 22.0126 20.7265 22.0238 21.1494C22.0448 21.9439 22.0646 22.6911 22.0042 24.0028H20.4137C20.4012 24.0028 20.3887 24 20.3772 23.9947C20.3656 23.9894 20.3551 23.9815 20.3464 23.9717C20.3376 23.9619 20.3307 23.9502 20.3262 23.9374C20.3216 23.9246 20.3194 23.911 20.3197 23.8972V15.2861C20.3197 15.2306 20.2969 15.2222 20.2664 15.2694L16.0406 22.4167C16.0357 22.4272 16.0283 22.436 16.0191 22.4422C16.0099 22.4483 15.9994 22.4516 15.9886 22.4516C15.9778 22.4516 15.9672 22.4483 15.958 22.4422C15.9488 22.436 15.9414 22.4272 15.9365 22.4167L11.731 15.175C11.7031 15.1278 11.6803 15.1333 11.6803 15.1917V23.8944C11.6803 23.9083 11.6778 23.922 11.6729 23.9348C11.6681 23.9476 11.6609 23.9593 11.652 23.9691C11.643 23.9789 11.6324 23.9867 11.6207 23.992C11.609 23.9973 11.5964 24 11.5838 24H8.72678C8.70162 23.9993 8.67773 23.9878 8.66017 23.9681C8.64262 23.9484 8.6328 23.922 8.63281 23.8944V9.10556C8.6328 9.07804 8.64262 9.0516 8.66017 9.03188C8.67773 9.01216 8.70162 9.00072 8.72678 9H11.6599C11.6891 9.00149 11.7175 9.01028 11.743 9.02569C11.7686 9.04111 11.7905 9.06273 11.8072 9.08889Z" fill="#F5F5F5"/>
</g>
<g clip-path="url(#clip3_2560_374)">
<path d="M28.0836 26.1632H31.2147C31.2421 26.1632 31.2685 26.1741 31.2882 26.1936C31.3079 26.2131 31.3193 26.2397 31.32 26.2677V26.5952C31.3173 26.6632 31.2929 26.7286 31.2507 26.7815C31.1925 26.8492 31.1315 26.9142 31.0704 26.9763C30.6727 27.382 30.2019 27.706 29.6838 27.9305C29.4155 28.0446 29.1369 28.1316 28.8518 28.1902C28.2697 28.3088 27.6702 28.3088 27.088 28.1902C26.8077 28.1307 26.5338 28.0437 26.2699 27.9305C25.7518 27.706 25.2811 27.382 24.8833 26.9763C24.6857 26.7747 24.5074 26.5545 24.3508 26.3185C24.0321 25.8384 23.8088 25.2994 23.6936 24.7319C23.5728 24.1513 23.5687 23.5518 23.6817 22.9695C23.7947 22.3873 24.0223 21.8344 24.3508 21.3441C24.5066 21.1067 24.685 20.8854 24.8833 20.6835C25.0902 20.483 25.3148 20.3025 25.5544 20.1443C25.7879 19.9842 26.0359 19.8471 26.2949 19.7349C26.5583 19.6213 26.8325 19.5352 27.113 19.478C27.6949 19.3566 28.2949 19.3566 28.8768 19.478C29.1621 19.5343 29.4409 19.6204 29.7088 19.7349C29.9678 19.8471 30.2157 19.9842 30.4492 20.1443C30.888 20.448 31.2686 20.8307 31.5724 21.2735C31.5881 21.2964 31.612 21.3121 31.6389 21.3174C31.6658 21.3227 31.6937 21.3171 31.7166 21.3018L34.3041 19.5232C34.3266 19.5072 34.342 19.4829 34.3472 19.4555C34.3524 19.4281 34.3469 19.3997 34.3318 19.3764C34.0686 18.9937 33.7736 18.6348 33.4499 18.3036C32.3881 17.2216 31.0384 16.4797 29.5673 16.1693C28.5587 15.9522 27.5174 15.9438 26.5055 16.1446C25.4936 16.3454 24.5317 16.7513 23.6769 17.3381C22.8578 17.9009 22.1526 18.6187 21.5997 19.4526C21.0282 20.3177 20.6314 21.2898 20.4324 22.3125C20.2334 23.3351 20.2361 24.3879 20.4405 25.4094C20.5426 25.9144 20.6931 26.408 20.8898 26.8831C21.0851 27.3489 21.3227 27.795 21.5997 28.2156C21.8766 28.6308 22.1913 29.0183 22.5399 29.3731C22.888 29.7276 23.2687 30.0471 23.6769 30.3274C24.0926 30.6134 24.5358 30.8556 24.9998 31.0501C25.4651 31.2516 25.9491 31.4048 26.4446 31.5074C27.4674 31.722 28.5224 31.722 29.5452 31.5074C30.0407 31.4048 30.5247 31.2516 30.99 31.0501C31.4492 30.8547 31.8878 30.6126 32.299 30.3274C32.7072 30.0471 33.0879 29.7276 33.436 29.3731C33.7846 29.0183 34.0994 28.6308 34.3762 28.2156L34.6036 27.874C34.6379 27.8147 34.6578 27.748 34.6618 27.6792V22.8799C34.6611 22.8519 34.6497 22.8254 34.63 22.8059C34.6103 22.7863 34.5839 22.7754 34.5564 22.7754H28.0836C28.0566 22.7762 28.031 22.7874 28.0119 22.8068C27.9928 22.8263 27.9817 22.8524 27.981 22.8799V26.0559C27.981 26.0839 27.9917 26.1108 28.0109 26.1308C28.0301 26.1508 28.0562 26.1625 28.0836 26.1632Z" fill="#F5F5F5"/>
</g>
</g>
<defs>
<filter id="filter0_b_2560_374" x="-6" y="-5" width="44" height="43" filterUnits="userSpaceOnUse" color-interpolation-filters="sRGB">
<feFlood flood-opacity="0" result="BackgroundImageFix"/>
<feGaussianBlur in="BackgroundImageFix" stdDeviation="7"/>
<feComposite in2="SourceAlpha" operator="in" result="effect1_backgroundBlur_2560_374"/>
<feBlend mode="normal" in="SourceGraphic" in2="effect1_backgroundBlur_2560_374" result="shape"/>
</filter>
<clipPath id="clip0_2560_374">
<rect width="32" height="32" fill="white"/>
</clipPath>
<clipPath id="clip1_2560_374">
<rect width="14" height="15" fill="white" transform="translate(-2)"/>
</clipPath>
<clipPath id="clip2_2560_374">
<rect width="16" height="15" fill="white" transform="translate(8 9)"/>
</clipPath>
<clipPath id="clip3_2560_374">
<rect width="14" height="16" fill="white" transform="translate(20 16)"/>
</clipPath>
</defs>
</svg>
