<svg width="860" height="393" viewBox="0 0 860 393" fill="none" xmlns="http://www.w3.org/2000/svg">
<g opacity="0.03" clip-path="url(#clip0_532_501)">
<rect width="860" height="94.6642" transform="translate(0 298)" fill="#0F0B27"/>
<path d="M0 299.74V391.04H10.6502V299.74H0ZM33.6545 299.74V391.04H43.6656V343.244C43.6656 338.487 43.5591 333.615 43.2396 328.859C42.9201 324.102 42.6006 319.346 42.2811 314.705H42.8136L51.8663 333.499L82.3257 391.04H93.2954V299.74H83.1777V346.956C83.1777 351.713 83.3907 356.585 83.6037 361.573C83.9232 366.562 84.2427 371.318 84.4557 375.959H83.9232L74.8706 357.049L44.6241 299.74H33.6545ZM133.659 309.485V391.04H144.416V309.485H169.763V299.74H108.419V309.485H133.659ZM184.78 299.74V391.04H234.41V381.179H195.43V348H227.274V338.139H195.43V309.485H233.132V299.74H184.78ZM262.739 343.012V309.021H276.798C283.401 309.021 288.406 310.297 291.921 312.617C295.435 315.053 297.139 319.346 297.139 325.378C297.139 331.295 295.435 335.703 291.921 338.604C288.406 341.504 283.401 343.012 276.798 343.012H262.739ZM298.204 391.04H310.133L288.939 351.249C294.69 349.624 299.269 346.724 302.677 342.432C306.085 338.139 307.789 332.455 307.789 325.378C307.789 320.622 307.044 316.562 305.553 313.313C304.168 310.065 302.145 307.513 299.482 305.425C296.926 303.336 293.838 301.944 290.217 301.016C286.596 300.204 282.655 299.74 278.395 299.74H252.196V391.04H262.739V352.525H277.969L298.204 391.04ZM326.427 299.74V391.04H336.545V343.244C336.545 338.487 336.332 333.615 336.012 328.859C335.799 324.102 335.48 319.346 335.054 314.705H335.586L344.639 333.499L375.098 391.04H386.068V299.74H375.95V346.956C375.95 351.713 376.163 356.585 376.483 361.573C376.696 366.562 377.015 371.318 377.228 375.959H376.802L367.643 357.049L337.397 299.74H326.427ZM444.75 353.917H419.616L423.557 339.996C425.048 334.891 426.539 329.787 427.923 324.682C429.201 319.694 430.586 314.473 431.864 309.137H432.396C433.674 314.473 435.059 319.694 436.443 324.682C437.828 329.787 439.212 334.891 440.81 339.996L444.75 353.917ZM447.413 363.198L455.401 391.04H466.69L438.36 299.74H426.326L397.996 391.04H408.859L416.847 363.198H447.413ZM490.866 309.485V391.04H501.622V309.485H526.97V299.74H465.625V309.485H490.866ZM541.986 299.74V391.04H552.637V299.74H541.986ZM606.526 392.664C611.851 392.664 616.644 391.62 621.01 389.416C625.484 387.096 629.211 383.963 632.406 379.787C635.601 375.727 638.051 370.738 639.861 364.822C641.565 358.905 642.417 352.293 642.417 344.984C642.417 337.675 641.565 331.179 639.861 325.378C638.051 319.578 635.601 314.705 632.406 310.645C629.211 306.585 625.484 303.452 621.01 301.364C616.644 299.16 611.851 298 606.526 298C601.308 298 596.409 299.16 592.042 301.248C587.676 303.336 583.841 306.469 580.753 310.529C577.558 314.589 575.108 319.462 573.404 325.262C571.594 331.063 570.742 337.675 570.742 344.984C570.742 352.293 571.594 358.905 573.404 364.822C575.108 370.738 577.558 375.727 580.753 379.787C583.841 383.963 587.676 387.096 592.042 389.416C596.409 391.62 601.308 392.664 606.526 392.664ZM606.526 382.571C602.799 382.571 599.391 381.643 596.409 379.903C593.32 378.163 590.764 375.611 588.634 372.362C586.398 368.998 584.693 365.054 583.522 360.529C582.35 355.889 581.711 350.669 581.711 344.984C581.711 339.3 582.35 334.195 583.522 329.671C584.693 325.146 586.398 321.202 588.634 318.07C590.764 314.937 593.32 312.501 596.409 310.761C599.391 309.021 602.799 308.209 606.526 308.209C610.254 308.209 613.662 309.021 616.75 310.761C619.733 312.501 622.289 314.937 624.525 318.07C626.655 321.202 628.359 325.146 629.531 329.671C630.702 334.195 631.341 339.3 631.341 344.984C631.341 350.669 630.702 355.889 629.531 360.529C628.359 365.054 626.655 368.998 624.525 372.362C622.289 375.611 619.733 378.163 616.75 379.903C613.662 381.643 610.254 382.571 606.526 382.571ZM660.523 299.74V391.04H670.534V343.244C670.534 338.487 670.427 333.615 670.108 328.859C669.788 324.102 669.469 319.346 669.149 314.705H669.682L678.734 333.499L709.194 391.04H720.163V299.74H710.046V346.956C710.046 351.713 710.259 356.585 710.472 361.573C710.791 366.562 711.111 371.318 711.324 375.959H710.791L701.739 357.049L671.492 299.74H660.523ZM778.846 353.917H753.605L757.652 339.996C759.143 334.891 760.634 329.787 761.912 324.682C763.297 319.694 764.681 314.473 765.959 309.137H766.385C767.77 314.473 769.154 319.694 770.539 324.682C771.923 329.787 773.308 334.891 774.905 339.996L778.846 353.917ZM781.508 363.198L789.389 391.04H800.785L772.456 299.74H760.421L732.092 391.04H742.955L750.942 363.198H781.508ZM812.713 299.74V391.04H860V381.179H823.257V299.74H812.713Z" fill="#F5F5F5"/>
</g>
<g opacity="0.03" clip-path="url(#clip1_532_501)">
<rect width="859" height="308.917" fill="#0F0B27"/>
<g clip-path="url(#clip2_532_501)">
<path d="M2.05902 0C1.50788 0.0143697 0.984191 0.241357 0.59957 0.632586C0.214949 1.02382 -0.000190811 1.54835 1.26985e-07 2.0944V295.531C-0.000190811 296.077 0.214949 296.602 0.59957 296.993C0.984191 297.384 1.50788 297.611 2.05902 297.625H112.69C152.539 297.625 190.757 281.947 218.935 254.039C247.113 226.131 262.943 188.28 262.943 148.813C262.943 109.345 247.113 71.494 218.935 43.5862C190.757 15.6784 152.539 5.88113e-07 112.69 0L2.05902 0ZM68.8381 231.486C68.287 231.472 67.7633 231.245 67.3787 230.854C66.9941 230.463 66.7789 229.938 66.7791 229.392V68.2334C66.7789 67.6873 66.9941 67.1628 67.3787 66.7716C67.7633 66.3803 68.287 66.1533 68.8381 66.139H112.69C134.828 66.139 156.06 74.8492 171.715 90.3535C187.369 105.858 196.164 126.886 196.164 148.813C196.164 170.739 187.369 191.768 171.715 207.272C156.06 222.776 134.828 231.486 112.69 231.486H68.8381Z" fill="#F5F5F5"/>
</g>
<g clip-path="url(#clip3_532_501)">
<path d="M419.761 143.687L330.89 1.76371C330.532 1.24459 330.062 0.815593 329.516 0.509803C328.969 0.204012 328.361 0.0295949 327.737 0L264.956 0C264.418 0.0143697 263.907 0.241357 263.531 0.632587C263.155 1.02382 262.945 1.54835 262.945 2.0944V295.531C262.945 296.077 263.155 296.602 263.531 296.993C263.907 297.384 264.418 297.611 264.956 297.625H326.106C326.378 297.625 326.646 297.571 326.897 297.466C327.147 297.361 327.375 297.206 327.567 297.012C327.759 296.817 327.911 296.587 328.015 296.332C328.118 296.078 328.172 295.806 328.172 295.531V122.853C328.172 121.696 328.661 121.585 329.259 122.522L419.271 266.209C419.376 266.418 419.535 266.593 419.732 266.715C419.929 266.838 420.155 266.902 420.386 266.902C420.616 266.902 420.843 266.838 421.039 266.715C421.236 266.593 421.395 266.418 421.5 266.209L511.947 124.396C512.6 123.459 513.089 123.625 513.089 124.727V295.586C513.082 295.859 513.128 296.13 513.226 296.383C513.324 296.637 513.471 296.869 513.658 297.064C513.846 297.259 514.07 297.414 514.318 297.52C514.565 297.626 514.831 297.681 515.1 297.681H576.25C576.521 297.681 576.79 297.626 577.04 297.521C577.291 297.416 577.518 297.262 577.71 297.067C577.902 296.873 578.054 296.642 578.158 296.388C578.262 296.134 578.315 295.861 578.315 295.586V2.0944C578.315 1.53893 578.098 1.00621 577.71 0.613436C577.323 0.220659 576.798 0 576.25 0L515.698 0C515.083 0.0420045 514.484 0.216058 513.94 0.510622C513.397 0.805186 512.921 1.21353 512.545 1.70859L421.989 143.687C421.885 143.895 421.725 144.071 421.528 144.193C421.332 144.315 421.106 144.38 420.875 144.38C420.644 144.38 420.418 144.315 420.221 144.193C420.025 144.071 419.865 143.895 419.761 143.687Z" fill="#F5F5F5"/>
</g>
<g clip-path="url(#clip4_532_501)">
<path d="M729.402 200.382H790.064C790.596 200.382 791.107 200.597 791.489 200.982C791.87 201.367 792.091 201.891 792.105 202.442V208.899C792.051 210.241 791.58 211.53 790.762 212.572C789.634 213.908 788.452 215.188 787.27 216.413C779.563 224.412 770.442 230.799 760.405 235.226C755.206 237.476 749.808 239.191 744.286 240.347C733.007 242.685 721.392 242.685 710.113 240.347C704.683 239.174 699.374 237.459 694.263 235.226C684.225 230.799 675.105 224.412 667.398 216.413C663.569 212.439 660.115 208.097 657.082 203.444C650.906 193.978 646.58 183.351 644.348 172.162C642.008 160.715 641.93 148.896 644.118 137.416C646.307 125.937 650.716 115.036 657.082 105.369C660.1 100.688 663.555 96.3257 667.398 92.3449C671.406 88.3927 675.759 84.8337 680.401 81.7137C684.925 78.5581 689.728 75.8556 694.746 73.6428C699.851 71.4034 705.162 69.7063 710.597 68.5777C721.87 66.1844 733.495 66.1844 744.769 68.5777C750.296 69.688 755.697 71.3853 760.888 73.6428C765.906 75.8556 770.71 78.5581 775.234 81.7137C783.734 87.7024 791.109 95.2474 796.995 103.978C797.299 104.429 797.761 104.74 798.283 104.843C798.804 104.947 799.345 104.837 799.789 104.535L849.919 69.4683C850.354 69.1531 850.654 68.6744 850.754 68.134C850.854 67.5936 850.748 67.034 850.456 66.5739C845.357 59.029 839.64 51.9525 833.37 45.4228C812.798 24.0908 786.649 9.46292 758.148 3.34327C738.606 -0.936387 718.432 -1.1018 698.827 2.85686C679.222 6.81551 660.585 14.8174 644.025 26.3868C628.155 37.4831 614.493 51.6366 603.782 68.0768C592.709 85.1327 585.021 104.3 581.165 124.462C577.309 144.625 577.363 165.38 581.322 185.521C583.3 195.478 586.215 205.209 590.027 214.576C593.81 223.759 598.415 232.555 603.782 240.848C609.145 249.033 615.243 256.674 621.996 263.669C628.74 270.657 636.117 276.957 644.025 282.482C652.078 288.123 660.666 292.897 669.655 296.731C678.669 300.704 688.048 303.725 697.648 305.748C717.463 309.978 737.903 309.978 757.718 305.748C767.318 303.725 776.697 300.704 785.711 296.731C794.607 292.88 803.104 288.106 811.072 282.482C818.98 276.957 826.357 270.657 833.101 263.669C839.854 256.674 845.952 249.033 851.316 240.848L855.722 234.113C856.386 232.943 856.773 231.627 856.85 230.272V135.649C856.836 135.098 856.615 134.574 856.233 134.189C855.852 133.805 855.34 133.589 854.808 133.59H729.402C728.879 133.604 728.382 133.825 728.012 134.208C727.642 134.592 727.428 135.107 727.414 135.649V198.267C727.414 198.819 727.622 199.349 727.993 199.744C728.365 200.139 728.87 200.368 729.402 200.382Z" fill="#F5F5F5"/>
</g>
</g>
<defs>
<clipPath id="clip0_532_501">
<rect width="860" height="94.6642" fill="white" transform="translate(0 298)"/>
</clipPath>
<clipPath id="clip1_532_501">
<rect width="859" height="308.917" fill="white"/>
</clipPath>
<clipPath id="clip2_532_501">
<rect width="262.943" height="297.625" fill="white"/>
</clipPath>
<clipPath id="clip3_532_501">
<rect width="315.37" height="297.625" fill="white" transform="translate(262.945)"/>
</clipPath>
<clipPath id="clip4_532_501">
<rect width="278.268" height="308.917" fill="white" transform="translate(578.312)"/>
</clipPath>
</defs>
</svg>
